<svg width="20" height="20" viewBox="0 0 20 20" fill="none" xmlns="http://www.w3.org/2000/svg">
<path d="M5.17221 13.8468H15.0095L15.0097 11.0717C15.0097 8.2391 12.6173 5.96169 9.74651 6.15308C7.12454 6.3253 5.15321 8.62191 5.15321 11.244L5.15308 13.8469L5.17221 13.8468ZM6.97129 11.0717C6.97129 9.34932 8.36839 7.95209 10.0909 7.95209C10.4163 7.95209 10.6842 8.22002 10.6842 8.54536C10.6842 8.87069 10.4163 9.13862 10.0909 9.13862C9.03828 9.13862 8.17707 9.99983 8.17707 11.0525V12.0285C8.17707 12.3539 7.90913 12.6218 7.5838 12.6218C7.25847 12.6218 6.99053 12.3539 6.99053 12.0285V11.0717H6.97129Z" fill="white"/>
<path d="M10.0909 4.77505C10.4163 4.77505 10.6842 4.50712 10.6842 4.18178V2.59327C10.6842 2.26793 10.4163 2 10.0909 2C9.76562 2 9.49768 2.26794 9.49768 2.59327V4.18178C9.49768 4.50713 9.76562 4.77505 10.0909 4.77505Z" fill="white"/>
<path d="M4.78947 6.61237C4.90428 6.72718 5.0574 6.78459 5.21052 6.78459C5.36364 6.78459 5.51677 6.72718 5.63157 6.61237C5.8612 6.38275 5.8612 5.99986 5.63157 5.75116L4.50242 4.62201C4.2728 4.39238 3.88991 4.39238 3.64121 4.62201C3.41159 4.85163 3.41159 5.23452 3.64121 5.48322L4.78947 6.61237Z" fill="white"/>
<path d="M3.79429 11.0717C3.79429 10.7464 3.52636 10.4784 3.20103 10.4784L1.59327 10.4783C1.26793 10.4783 1 10.7462 1 11.0716C1 11.3969 1.26794 11.6648 1.59327 11.6648L3.20089 11.665C3.52636 11.665 3.79429 11.397 3.79429 11.0717Z" fill="white"/>
<path d="M18.5885 10.4593H16.9808C16.6555 10.4593 16.3876 10.7272 16.3876 11.0525C16.3876 11.3779 16.6555 11.6458 16.9808 11.6458H18.5694C18.8947 11.6458 19.1626 11.3779 19.1626 11.0525C19.1626 10.7272 18.9138 10.4593 18.5884 10.4593H18.5885Z" fill="white"/>
<path d="M14.9713 6.78462C15.1244 6.78462 15.2776 6.72721 15.3924 6.6124L16.5215 5.48325C16.7512 5.25363 16.7512 4.87074 16.5215 4.62204C16.2919 4.39242 15.909 4.39242 15.6603 4.62204L14.5503 5.7703C14.3206 5.99992 14.3206 6.3828 14.5503 6.63151C14.6651 6.72723 14.8182 6.78463 14.9713 6.78463V6.78462Z" fill="white"/>
<path d="M15.5646 15.0526H4.61727C3.81345 15.0526 3.14355 15.7032 3.14355 16.5263C3.14355 17.3301 3.79424 18 4.61727 18H15.5646C16.3685 18 17.0384 17.3493 17.0384 16.5263C17.0384 15.7034 16.3875 15.0526 15.5646 15.0526Z" fill="white"/>
</svg>
